{"asset":{"version":"2.0","generator":"babylon.js glTF exporter for 3dsmax 2018 v20201207.3"},"scene":0,"scenes":[{"nodes":[0,1,2,3]}],"nodes":[{"mesh":0,"translation":[-0.6240453,0.615882754,2.5736177],"rotation":[0.7071068,0.0,0.0,0.7071067],"name":"SlidingWindow01"},{"mesh":1,"translation":[4.106216,0.0,0.06867652],"name":"Box006"},{"mesh":2,"translation":[-0.6240453,0.615882754,2.5736177],"rotation":[0.7071068,0.0,0.0,0.7071067],"name":"avavvcx"},{"name":"Default light"}],"meshes":[{"primitives":[{"attributes":{"POSITION":1,"NORMAL":2,"TEXCOORD_0":3,"TEXCOORD_1":4},"indices":0,"material":0}],"name":"SlidingWindow01"},{"primitives":[{"attributes":{"POSITION":6,"NORMAL":7,"TEXCOORD_0":8,"TEXCOORD_1":9},"indices":5,"material":1}],"name":"Box006"},{"primitives":[{"attributes":{"POSITION":11,"NORMAL":12},"indices":10,"material":2}],"name":"avavvcx"}],"accessors":[{"bufferView":0,"componentType":5123,"count":744,"type":"SCALAR","name":"accessorIndices"},{"bufferView":1,"componentType":5126,"count":744,"max":[1.40137982,0.102141485,0.0],"min":[-1.40137982,-0.102141485,-1.37106431],"type":"VEC3","name":"accessorPositions"},{"bufferView":1,"byteOffset":8928,"componentType":5126,"count":744,"type":"VEC3","name":"accessorNormals"},{"bufferView":2,"componentType":5126,"count":744,"type":"VEC2","name":"accessorUVs"},{"bufferView":2,"byteOffset":5952,"componentType":5126,"count":744,"type":"VEC2","name":"accessorUV2s"},{"bufferView":0,"byteOffset":1488,"componentType":5123,"count":462,"type":"SCALAR","name":"accessorIndices"},{"bufferView":1,"byteOffset":17856,"componentType":5126,"count":462,"max":[-0.07145899,2.80000019,2.60043788],"min":[-8.118066,0.0,-2.56964278],"type":"VEC3","name":"accessorPositions"},{"bufferView":1,"byteOffset":23400,"componentType":5126,"count":462,"type":"VEC3","name":"accessorNormals"},{"bufferView":2,"byteOffset":11904,"componentType":5126,"count":462,"type":"VEC2","name":"accessorUVs"},{"bufferView":2,"byteOffset":15600,"componentType":5126,"count":462,"type":"VEC2","name":"accessorUV2s"},{"bufferView":0,"byteOffset":2412,"componentType":5123,"count":72,"type":"SCALAR","name":"accessorIndices"},{"bufferView":1,"byteOffset":28944,"componentType":5126,"count":72,"max":[1.35137987,0.0568207428,-0.05],"min":[-1.35137987,-0.0568207428,-1.32106423],"type":"VEC3","name":"accessorPositions"},{"bufferView":1,"byteOffset":29808,"componentType":5126,"count":72,"type":"VEC3","name":"accessorNormals"}],"bufferViews":[{"buffer":0,"byteLength":2556,"name":"bufferViewScalar"},{"buffer":0,"byteOffset":2556,"byteLength":30672,"byteStride":12,"name":"bufferViewFloatVec3"},{"buffer":0,"byteOffset":33228,"byteLength":19296,"byteStride":8,"name":"bufferViewFloatVec2"}],"buffers":[{"uri":"fangzi.bin","byteLength":52524}],"materials":[{"pbrMetallicRoughness":{"baseColorFactor":[0.143522575,0.207924768,0.3381295,1.0],"metallicFactor":0.689999938,"roughnessFactor":0.429999977},"occlusionTexture":{"index":0,"texCoord":1},"name":"badfgsd"},{"pbrMetallicRoughness":{"baseColorFactor":[0.5,0.5,0.5,1.0],"metallicFactor":0.0,"roughnessFactor":0.799999952},"occlusionTexture":{"index":1,"texCoord":1},"name":"baxcds"},{"pbrMetallicRoughness":{"baseColorFactor":[0.4172662,0.433932,0.5,0.64],"metallicFactor":0.13,"roughnessFactor":0.0},"alphaMode":"BLEND","name":"dva"}],"textures":[{"sampler":0,"source":0,"name":"SlidingWindow01.jpg"},{"sampler":0,"source":1,"name":"Box006.jpg"}],"images":[{"uri":"./SlidingWindow01.jpg"},{"uri":"./Box006.jpg"}],"samplers":[{"magFilter":9729,"minFilter":9987}]}